<svg xmlns="http://www.w3.org/2000/svg" xmlns:xlink="http://www.w3.org/1999/xlink" viewBox="0 0 76.66 96.42"><defs><style>.cls-1{fill:url(#New_Gradient_Swatch_2);}.cls-2{fill:url(#New_Gradient_Swatch_2-2);}</style><radialGradient id="New_Gradient_Swatch_2" cx="20.84" cy="36.02" fx="50.264436615847714" r="29.43" gradientUnits="userSpaceOnUse"><stop offset="0.32" stop-color="#00d0ef"/><stop offset="0.71" stop-color="#00d0ef"/><stop offset="0.9" stop-color="#1c75bc"/></radialGradient><radialGradient id="New_Gradient_Swatch_2-2" cx="55.23" cy="61.02" fx="73.49764936796956" fy="83.87674905895358" r="29.26" xlink:href="#New_Gradient_Swatch_2"/></defs><g id="Layer_2" data-name="Layer 2"><g id="Layer_1-2" data-name="Layer 1"><path class="cls-1" d="M2.6,53.35A36.16,36.16,0,0,0,1.19,48.6,34.5,34.5,0,0,1,0,44.87H.72c1.55,2.35,3.11,3.86,4.71,4.54a18,18,0,0,0,6.76,1h5.5A23.82,23.82,0,0,0,21,50.18a52.25,52.25,0,0,0,.5-7.77V34.75H12.37a8.86,8.86,0,0,0-5.1,1.16q-1.59,1.16-1.92,4.25H4.56c.07-1.38.13-2.31.18-2.78.14-1.59.22-2.88.22-3.86C5,32,4.86,30.14,4.67,28h.79c.58,1.85,1.35,3,2.32,3.52s2.92.74,5.86.74h7.81V26.56l-.07-2.39q-.11-4.5-.76-5.7a16.45,16.45,0,0,0-2.53-.18H12.34c-3.07,0-5.15.29-6.26.85S4,21,3.11,23H2.5v-.88c0-.09,0-.71.1-1.86.13-1.71.19-2.8.19-3.27s0-.88-.08-1.58q8.25.42,11.22.42H24.46V52.92H10A71,71,0,0,0,2.6,53.35ZM30,40.13a45.52,45.52,0,0,0,.4,7.73,7.28,7.28,0,0,0,1.41,3.06,5.19,5.19,0,0,0,3,1.79v.64C32.08,53.06,25.3,72,24.46,72l2.6-19.12V15.87h1.2C31.15,15.68,40.21.09,41.68,0L34.8,16.08a5.63,5.63,0,0,0-3.36,2.32Q30,20.31,30,25.4"/><path class="cls-2" d="M49.56,39.06V76.11c-2,.08-12.88,20.09-15.76,20.31L42.17,75.9q4.5-1.23,4.5-9.52V48.06q0-7.31-4.5-8.79L35.54,25.63C38,25.87,47.07,39,49.56,39.06Zm2.6,37.05v-37l6-.42a9.29,9.29,0,0,1,7.1,2.78,10.05,10.05,0,0,1,2.6,7.13,8.14,8.14,0,0,1-4.71,7.81q7.59,1.72,7.6,9.88a11.15,11.15,0,0,1-2.5,7.2q-2.54,3.11-8.16,3.1c-1.38,0-2.88-.09-4.5-.25C54.15,76.17,53,76.11,52.16,76.11ZM55,48.66v7.06h2.71A7.07,7.07,0,0,0,63,53.9a7.15,7.15,0,0,0,1.83-5.28,7.11,7.11,0,0,0-2-5.41,6.67,6.67,0,0,0-4.71-1.83,3.77,3.77,0,0,0-2.43.74A23.31,23.31,0,0,0,55,48.66Zm3.52,9.56H55v6.33q0,6.65,1.44,8.4a6,6,0,0,0,3.69,1c2.75,0,4.7-.8,5.87-2.39a9.41,9.41,0,0,0,1.69-5.59,8.36,8.36,0,0,0-1.09-4.39,6.26,6.26,0,0,0-2.81-2.61A15.14,15.14,0,0,0,58.56,58.22Zm9.81-3c1.42-1.87,5.3-4.87,5.3-7.45,0-2-3.56-3.09-4.36-4.71a7.12,7.12,0,0,0-2.84-3.34,9.1,9.1,0,0,1,5.34,3,7.79,7.79,0,0,1,.32,9.7A7.41,7.41,0,0,1,68.37,55.23Zm1.75,19.9c2.16-2.27,6.54-5.46,6.54-9,0-3.8-4.43-6.59-6.68-8.93q6.67,2.43,6.68,8.93a9.32,9.32,0,0,1-1.86,5.7A8.75,8.75,0,0,1,70.12,75.13Z"/></g></g></svg>